Coordinates
version=1
nRows=16
nColumns=40
inDegrees=yes

Units are S.I. units (second, meters, Newtons, ...)
Angles are in degrees.

endheader
time	pelvis_tilt	pelvis_list	pelvis_rotation	pelvis_tx	pelvis_ty	pelvis_tz	hip_flexion_r	hip_adduction_r	hip_rotation_r	knee_angle_r	knee_angle_r_beta	ankle_angle_r	subtalar_angle_r	mtp_angle_r	hip_flexion_l	hip_adduction_l	hip_rotation_l	knee_angle_l	knee_angle_l_beta	ankle_angle_l	subtalar_angle_l	mtp_angle_l	lumbar_extension	lumbar_bending	lumbar_rotation	arm_flex_r	arm_add_r	arm_rot_r	elbow_flex_r	pro_sup_r	wrist_flex_r	wrist_dev_r	arm_flex_l	arm_add_l	arm_rot_l	elbow_flex_l	pro_sup_l	wrist_flex_l	wrist_dev_l
      2.56000000	     -4.04469025	     -4.27748841	     -0.60407345	      0.75199978	      0.92973996	      0.43955904	     29.42551092	     -4.16710822	     -6.16408714	     64.29507665	     64.29507665	      4.44132290	    -17.25517372	      4.56936855	     17.83498679	     -4.42659062	     -4.91547244	     23.49665723	     23.49665723	     12.17604071	    -10.97144292	     -1.34115047	    -10.26159229	      4.46573546	      1.41910751	      7.73809297	    -12.67676382	      1.90804628	     39.46722349	     45.89380781	      0.00000000	      0.00000000	      3.28882887	    -13.03867628	     -5.59314491	     48.68912511	     45.99219036	      0.00000000	      0.00000000
      2.57264286	     -4.12338288	     -4.35254222	     -0.86975686	      0.75082380	      0.93028989	      0.43960038	     30.19626253	     -3.95848086	     -6.04434557	     62.62452233	     62.62452233	      4.50591768	    -16.76912177	      4.52940521	     17.26344777	     -4.52661725	     -5.10769286	     23.09998382	     23.09998382	     12.44743470	    -10.87054632	     -1.39774792	    -10.23166247	      4.69936980	      1.15332371	      6.07635607	    -12.96884347	      1.95641902	     38.50619451	     45.91596968	      0.00000000	      0.00000000	      4.04186514	    -13.54793194	     -5.80659656	     49.43812843	     46.03058113	      0.00000000	      0.00000000
      2.58528571	     -4.04336042	     -4.37292231	     -1.23836619	      0.74976052	      0.93110882	      0.43976609	     30.66362428	     -3.74150089	     -5.83159800	     60.70195984	     60.70195984	      4.43535867	    -16.27878066	      4.15176886	     16.41049018	     -4.59350149	     -5.50637392	     22.54184002	     22.54184002	     12.66350654	    -10.69571133	     -1.54428960	    -10.45847667	      4.80111002	      1.75783306	      4.35365305	    -13.50541648	      1.96340277	     36.61555931	     45.97590044	      0.00000000	      0.00000000	      5.00666041	    -13.68256350	     -5.99213698	     51.37010586	     46.08664675	      0.00000000	      0.00000000
      2.59792857	     -4.11561989	     -4.38079953	     -1.54700297	      0.74864969	      0.93147355	      0.43993439	     31.17248346	     -3.57913763	     -5.73761730	     58.55919054	     58.55919054	      3.95958950	    -15.91757511	      2.61451900	     15.80910499	     -4.63978450	     -5.83660533	     22.09015284	     22.09015284	     12.71778035	    -10.57977077	     -2.18848460	    -10.45532529	      4.88251658	      1.29756557	      3.70476820	    -13.39051666	      1.42922974	     33.32505377	     46.12778170	      0.00000000	      0.00000000	      4.75556862	    -14.54013910	     -5.99838244	     54.59365129	     46.15951962	      0.00000000	      0.00000000
      2.61057143	     -4.10232940	     -4.41548737	     -1.84178964	      0.74759384	      0.93197555	      0.44013786	     31.44246709	     -3.39295254	     -5.72133934	     56.13985685	     56.13985685	      3.57179504	    -15.44751456	      1.40501975	     15.09978713	     -4.68012259	     -6.06513532	     21.59706756	     21.59706756	     12.77033364	    -10.66196148	     -2.62606910	    -10.56963221	      5.02735311	      0.84911624	      3.03418882	    -13.35815894	      0.62558329	     30.58494079	     46.27385186	      0.00000000	      0.00000000	      4.86167436	    -15.14781101	     -6.62870140	     56.78333265	     46.29819448	      0.00000000	      0.00000000
      2.62321429	     -4.11462462	     -4.41186897	     -2.16400769	      0.74657420	      0.93236634	      0.44044901	     31.67696130	     -3.22619456	     -5.71182258	     53.59206181	     53.59206181	      3.62733763	    -14.70208545	      1.40571056	     14.42031646	     -4.69109663	     -6.33954587	     21.12549889	     21.12549889	     12.99563648	    -10.58964438	     -2.67407316	    -10.65075096	      5.13741494	      0.99090639	      1.50675519	    -13.73056080	      0.47887710	     29.50417943	     46.31367977	      0.00000000	      0.00000000	      5.71788807	    -15.48419562	     -7.00515814	     57.97967795	     46.36264748	      0.00000000	      0.00000000
      2.63585714	     -4.20435835	     -4.36100946	     -2.47799759	      0.74550424	      0.93252700	      0.44081834	     31.88092519	     -3.13488194	     -5.82087904	     50.78219073	     50.78219073	      3.56031151	    -13.89294354	      0.98474440	     13.86117141	     -4.65989379	     -6.65492609	     20.68819819	     20.68819819	     13.14924027	    -10.50623850	     -2.89983689	    -10.66781997	      5.18676947	      1.02792438	      0.20475193	    -13.95811671	      0.01114394	     28.16584042	     46.38921923	      0.00000000	      0.00000000	      6.19637150	    -15.89471903	     -7.39758184	     59.92536800	     46.44694372	      0.00000000	      0.00000000
      2.64850000	     -4.28802238	     -4.35255668	     -2.78986256	      0.74450161	      0.93257097	      0.44135864	     31.89198566	     -2.98350479	     -6.05185249	     47.60807237	     47.60807237	      3.22681668	    -13.13990165	     -0.33585144	     13.31756220	     -4.67782287	     -6.90703975	     20.29940011	     20.29940011	     13.24930182	    -10.53581221	     -3.34653322	    -10.69471529	      5.25309136	      0.61384448	     -0.63558241	    -13.98792411	     -1.26049764	     26.68846676	     46.53249907	      0.00000000	      0.00000000	      6.11395591	    -16.51321054	     -8.04248668	     62.54863955	     46.58627193	      0.00000000	      0.00000000
      2.66114286	     -4.47419088	     -4.33511753	     -3.09631337	      0.74347907	      0.93245587	      0.44200370	     31.93077339	     -2.80688366	     -6.33763182	     44.29316458	     44.29316458	      3.38128593	    -12.08593133	     -0.16718709	     12.90425081	     -4.68292763	     -7.11103348	     19.93954029	     19.93954029	     13.47186580	    -10.55129108	     -3.38223485	    -10.55338044	      5.36395678	      0.54981744	     -1.94380932	    -14.26523038	     -1.38546112	     26.05714989	     46.55655821	      0.00000000	      0.00000000	      6.85383165	    -16.92754518	     -8.38167312	     63.38030200	     46.63568147	      0.00000000	      0.00000000
      2.67378571	     -4.51880631	     -4.24594049	     -3.42938268	      0.74257809	      0.93245641	      0.44270468	     31.66625083	     -2.72985355	     -6.78862392	     40.74392804	     40.74392804	      3.53697932	    -10.66643064	     -0.22624553	     12.31759253	     -4.61397947	     -7.39290269	     19.56853616	     19.56853616	     13.68594813	    -10.52249607	     -3.47777643	    -10.63173603	      5.37761250	      0.80878192	     -3.34063644	    -14.57598164	     -1.64186375	     25.43157977	     46.58996082	      0.00000000	      0.00000000	      7.61500227	    -17.09973749	     -8.76551447	     64.92960060	     46.70195214	      0.00000000	      0.00000000
      2.68642857	     -4.83480682	     -3.88101312	     -3.77770765	      0.74145252	      0.93173316	      0.44364101	     31.78749120	     -2.76036601	     -6.89909675	     37.32515036	     37.32515036	      3.69358687	     -9.71797706	      0.07006369	     12.20505849	     -4.29796492	     -7.73561343	     19.47622709	     19.47622709	     13.87561096	    -10.61941483	     -3.59638999	    -10.35320731	      5.02121153	      0.60329053	     -4.45854737	    -14.72010519	     -1.75288899	     25.04982083	     46.60428679	      0.00000000	      0.00000000	      8.26439420	    -17.77622022	     -9.11428242	     65.68921403	     46.74725821	      0.00000000	      0.00000000
      2.69907143	     -4.89933292	     -4.11008127	     -4.08234239	      0.74096434	      0.93175553	      0.44470445	     31.06188806	     -2.32401360	     -7.85814250	     33.23484815	     33.23484815	      3.77824582	     -7.71731792	      0.18821841	     11.49855914	     -4.56431491	     -7.87077000	     18.91320672	     18.91320672	     14.12899147	    -10.55921310	     -3.68484741	    -10.36159864	      5.42346882	      0.96483304	     -5.86533385	    -14.89499696	     -2.02386772	     24.66158034	     46.62870873	      0.00000000	      0.00000000	      8.85309935	    -17.73024986	     -9.46320895	     67.58366944	     46.81278798	      0.00000000	      0.00000000
      2.71171429	     -4.96206159	     -3.96238704	     -4.39697624	      0.74043678	      0.93139817	      0.44583521	     30.46514391	     -2.19232194	     -8.60225075	     29.48348701	     29.48348701	      3.83536075	     -5.83624430	      0.34919125	     10.92585922	     -4.44639030	     -8.15488044	     18.56914926	     18.56914926	     14.34624191	    -10.53547042	     -3.88283038	    -10.38759010	      5.31537691	      1.19181522	     -7.17929107	    -15.02511713	     -2.39755754	     24.51436286	     46.65136049	      0.00000000	      0.00000000	      9.34335205	    -17.86912856	     -9.89425714	     69.56058292	     46.88636944	      0.00000000	      0.00000000
      2.72435714	     -4.95789124	     -3.67476239	     -4.70582690	      0.74019033	      0.93086152	      0.44696709	     29.82302806	     -2.25798555	     -9.58701781	     26.06409245	     26.06409245	      3.81837797	     -3.50228510	      0.11532295	     10.24299758	     -4.16835601	     -8.49905053	     18.15910195	     18.15910195	     14.39182794	    -10.52967175	     -4.57168663	    -10.52504727	      5.03310482	      1.06009049	     -8.60812969	    -15.03990603	     -4.06371081	     25.62039342	     46.71415023	      0.00000000	      0.00000000	      8.87968723	    -18.11978865	    -11.01373951	     73.51898290	     47.06232677	      0.00000000	      0.00000000
      2.73700000	     -4.99891230	     -3.51235357	     -4.98063532	      0.74009932	      0.93030907	      0.44832706	     29.15499750	     -2.05284683	    -10.30706681	     22.85054081	     22.85054081	      3.84167549	     -1.69363358	      0.91613660	      9.61634313	     -4.02652060	     -8.69997841	     17.80175322	     17.80175322	     14.54704697	    -10.56634522	     -4.96334571	    -10.49701650	      4.93195500	      1.15462898	     -9.73748957	    -14.98869313	     -4.90504258	     25.71559017	     46.75674753	      0.00000000	      0.00000000	      9.30218849	    -18.16028633	    -11.67062670	     75.17577761	     47.16364561	      0.00000000	      0.00000000
      2.74964286	     -5.04923375	     -3.36270408	     -5.22264212	      0.74022753	      0.92962998	      0.44978858	     28.58983975	     -1.85455816	    -11.07287820	     20.25267689	     20.25267689	      4.27804436	      0.01687838	      2.99510562	      8.97582888	     -3.89201026	     -8.88315216	     17.39135327	     17.39135327	     14.52731233	    -10.76555795	     -5.72080252	    -10.44047544	      4.86660591	      1.12694622	    -10.81770046	    -14.79344029	     -7.01541793	     26.27006017	     46.84911676	      0.00000000	      0.00000000	      9.39779431	    -18.17122089	    -12.56498516	     77.17108675	     47.33941415	      0.00000000	      0.00000000
